<?xml version="1.0" encoding="iso-8859-1"?>
<!-- Generator: Adobe Illustrator 19.0.0, SVG Export Plug-In . SVG Version: 6.00 Build 0)  -->
<svg version="1.1" id="Layer_1" xmlns="http://www.w3.org/2000/svg" xmlns:xlink="http://www.w3.org/1999/xlink" x="0px" y="0px"
	 viewBox="0 0 512 512" style="enable-background:new 0 0 512 512;" xml:space="preserve">
<path style="fill:#85EDC1;" d="M256,512C114.509,512,0,397.503,0,256C0,114.509,114.497,0,256,0c141.491,0,256,114.497,256,256
	C512,397.491,397.503,512,256,512z"/>
<path style="fill:#48A792;" d="M256,0v512c141.503,0,256-114.509,256-256C512,114.497,397.491,0,256,0z"/>
<path style="fill:#FFDB2D;" d="M203.373,350.07l-82.887-82.887c-6.665-6.665-6.665-17.471,0-24.136
	c6.664-6.665,17.471-6.665,24.136,0l70.82,70.819l151.938-151.938c6.664-6.665,17.471-6.665,24.136,0s6.665,17.471,0,24.136
	L227.509,350.07C220.847,356.732,210.037,356.734,203.373,350.07z"/>
<path style="fill:#FF9900;" d="M391.514,161.93c-6.664-6.665-17.471-6.665-24.136,0L256,273.308v48.271l135.514-135.514
	C398.179,179.4,398.179,168.595,391.514,161.93z"/>
<g>
</g>
<g>
</g>
<g>
</g>
<g>
</g>
<g>
</g>
<g>
</g>
<g>
</g>
<g>
</g>
<g>
</g>
<g>
</g>
<g>
</g>
<g>
</g>
<g>
</g>
<g>
</g>
<g>
</g>
</svg>
